<svg xmlns="http://www.w3.org/2000/svg" viewBox="0 0 100 100" width="100%" height="100%">
  <rect x="28" y="16" width="56" height="68" rx="8" fill="#27272A"/>
  <rect x="36" y="24" width="40" height="8" rx="2" fill="#3F3F46"/>
  <rect x="36" y="38" width="18" height="12" rx="2" fill="#18181B"/>
  <rect x="58" y="38" width="18" height="12" rx="2" fill="#FF5B19"/>
  <rect x="36" y="54" width="18" height="12" rx="2" fill="#FF5B19"/>
  <rect x="58" y="54" width="18" height="12" rx="2" fill="#18181B"/>
  <rect x="36" y="70" width="40" height="6" rx="2" fill="#3F3F46"/>
  <rect x="16" y="28" width="44" height="44" rx="10" fill="#18181B"/>
  <path d="M27 38 L34 50 L27 62 L32 62 L37 53.5 L42 62 L47 62 L40 50 L47 38 L42 38 L37 46.5 L32 38 Z" fill="#FFFFFF"/>
</svg>
