<svg xmlns="http://www.w3.org/2000/svg" viewBox="0 0 48 48" width="46" height="46" fill="none">
  <!-- 3 User Avatars Above Magnet -->
  <!-- Center User -->
  <circle cx="24" cy="9" r="4.2" fill="#18181B" />
  <path d="M16 19 C16 15 19.5 14.5 24 14.5 C28.5 14.5 32 15 32 19" stroke="#18181B" stroke-width="2.5" stroke-linecap="round" fill="none" />
  <!-- Left User -->
  <circle cx="10" cy="12" r="3.2" fill="#18181B" />
  <path d="M4 21 C4 18 6.5 17.5 10 17.5 C12.5 17.5 14.5 18 15 20" stroke="#18181B" stroke-width="2.2" stroke-linecap="round" fill="none" />
  <!-- Right User -->
  <circle cx="38" cy="12" r="3.2" fill="#18181B" />
  <path d="M33 20 C33.5 18 35.5 17.5 38 17.5 C41.5 17.5 44 18 44 21" stroke="#18181B" stroke-width="2.2" stroke-linecap="round" fill="none" />

  <!-- Magnetic Sparks -->
  <path d="M17 23 L15 26" stroke="#18181B" stroke-width="2.2" stroke-linecap="round" />
  <path d="M24 22 L24 25.5" stroke="#18181B" stroke-width="2.2" stroke-linecap="round" />
  <path d="M31 23 L33 26" stroke="#18181B" stroke-width="2.2" stroke-linecap="round" />

  <!-- Horseshoe Magnet -->
  <path d="M12 28 V35.5 C12 42.1 17.4 47.5 24 47.5 C30.6 47.5 36 42.1 36 35.5 V28 H28 V35 C28 37.2 26.2 39 24 39 C21.8 39 20 37.2 20 35 V28 H12 Z" fill="#18181B" />
  <line x1="12" y1="32" x2="20" y2="32" stroke="#FFFFFF" stroke-width="2" />
  <line x1="28" y1="32" x2="36" y2="32" stroke="#FFFFFF" stroke-width="2" />
</svg>
